<svg width="1024" height="1024" viewBox="0 0 1024 1024" fill="none" xmlns="http://www.w3.org/2000/svg">
<path d="M309.701 590.22C311.14 591.752 310.053 594.266 307.953 594.266H276.984C276.2 594.266 275.447 593.936 274.919 593.355L220.38 533.811H218.874V591.867C218.874 593.192 217.8 594.266 216.475 594.266H190.449C189.124 594.266 188.05 593.192 188.05 591.867V439.035C188.05 437.71 189.124 436.636 190.449 436.636H257.213C273.796 436.548 304.616 448.227 304.616 485.285C304.616 510.932 288.117 531.455 256.672 533.806L309.705 590.22H309.701ZM245.556 509.378C255.355 509.378 262.742 507.296 267.717 503.184C272.687 499.064 275.174 493.367 275.174 486.126C275.174 478.884 272.911 473.668 268.399 469.684C263.869 465.717 257.328 463.701 248.726 463.701H218.879V509.374H245.561L245.556 509.378ZM424.356 500.684C426.624 504.479 434.587 518.896 432.289 537.306C431.955 539.991 431.457 542.316 430.969 544.182C430.696 545.239 429.74 545.969 428.649 545.969H337.056C338.641 551.965 345.438 571.643 370.931 571.643C383.2 571.643 392.564 566.391 396.882 561.496C397.419 560.889 398.181 560.532 398.991 560.532H424.123C425.919 560.532 427.099 562.438 426.263 564.032C420.769 574.509 410.639 584.929 396.367 591.321C388.637 594.786 380.158 596.542 371.186 596.542C359.494 596.542 348.625 593.747 338.883 588.257C322.256 578.889 307.055 560.475 307.055 533.802C307.086 528.704 307.808 512.385 319.218 496.942C320.759 494.86 327.384 486.192 339.13 479.478C348.885 473.905 359.578 471.075 370.931 471.075C395.812 471.075 414.689 484.488 424.356 500.679V500.684ZM403.78 523.426C402.799 518.671 395.887 495.762 370.931 495.762C353.45 495.762 340.248 507.221 336.554 523.426H403.78Z" fill="white"/>
<path d="M699.064 473.368H628.657L628.659 473.047C628.659 447.752 646.237 451.784 654.253 453.642C655.754 453.994 657.181 452.845 657.181 451.304V431.78C657.181 430.658 656.41 429.681 655.31 429.443C651.695 428.646 647.328 427.458 641.628 427.458C629.46 427.458 597.966 433.709 597.966 470.828V473.373H581.273C579.944 473.373 578.87 474.442 578.87 475.772V494.737C578.87 496.062 579.944 497.136 581.273 497.136H597.966V591.876C597.966 593.205 599.041 594.275 600.37 594.275H626.255C627.585 594.275 628.659 593.205 628.659 591.876V497.136H672.782V591.871C672.782 593.196 673.856 594.271 675.186 594.271H699.922C701.251 594.271 702.325 593.196 702.325 591.871V475.767C702.325 474.442 701.251 473.368 699.922 473.368H699.064Z" fill="white"/>
<path d="M687.67 427.678C684.369 427.678 681.38 428.422 678.703 429.914C676.027 431.402 673.984 433.409 672.566 435.919C671.149 438.437 670.445 441.175 670.445 444.155C670.445 448.865 672.091 452.827 675.397 456.05C678.699 459.268 682.788 460.879 687.67 460.879C690.822 460.879 693.688 460.179 696.29 458.766C698.892 457.353 700.925 455.35 702.427 452.761C703.919 450.177 704.667 447.307 704.667 444.164C704.667 439.616 703.052 435.729 699.825 432.511C696.598 429.293 692.548 427.682 687.67 427.682V427.678Z" fill="white"/>
<path d="M563.053 436.693H538.876C537.542 436.693 536.472 437.763 536.472 439.093V485.54H535.297C533.734 483.665 531.379 481.622 528.235 479.439C525.101 477.247 521.06 475.292 516.112 473.566C511.172 471.845 505.718 470.978 499.753 470.978C489.399 470.978 479.789 473.676 470.919 479.078C462.061 484.479 455 491.994 449.74 501.622C444.483 511.249 441.851 521.929 441.851 533.67C441.851 545.41 444.479 556.095 449.74 565.718C454.996 575.341 462.061 582.86 470.919 588.262C479.785 593.663 489.399 596.362 499.753 596.362C506.189 596.362 511.921 595.464 516.935 593.663C521.962 591.863 526.197 589.824 529.649 587.557C533.104 585.286 535.842 582.979 537.889 580.633H539.052V591.871C539.052 593.201 540.126 594.271 541.455 594.271H563.053C564.386 594.271 565.461 593.201 565.461 591.871V439.093C565.461 437.763 564.386 436.693 563.053 436.693ZM532.114 552.216C529.208 557.693 525.251 561.963 520.232 565.013C515.214 568.064 509.64 569.592 503.521 569.592C497.878 569.592 492.498 568.069 487.396 565.013C482.303 561.963 478.297 557.693 475.391 552.216C472.486 546.731 471.038 540.55 471.038 533.67C471.038 526.789 472.49 520.401 475.391 515C478.306 509.598 482.298 505.372 487.396 502.322C492.498 499.271 497.869 497.743 503.521 497.743C509.64 497.743 515.214 499.271 520.232 502.322C525.251 505.372 529.208 509.598 532.114 515C535.028 520.401 536.468 526.622 536.468 533.67C536.468 540.718 535.024 546.731 532.114 552.216Z" fill="white"/>
<path d="M784.849 471.264C766.716 471.264 754.095 481.71 749.552 487.499H748.689V475.776C748.689 474.451 747.615 473.373 746.286 473.373H724.737C723.416 473.373 722.333 474.456 722.333 475.776V591.867C722.333 593.192 723.407 594.271 724.737 594.271H749.055C750.375 594.271 751.458 593.135 751.458 591.814V526.714C751.458 509.312 762.754 497.158 779.39 497.158C796.026 497.158 806.865 509.312 806.865 526.714V591.867C806.865 593.192 807.939 594.271 809.268 594.271H833.546C834.867 594.271 835.95 593.192 835.95 591.867V524.804C835.95 492.778 815.414 471.264 784.849 471.264Z" fill="white"/>
</svg>
